<?xml version="1.0" encoding="UTF-8"?>
<svg id="Layer_1" xmlns="http://www.w3.org/2000/svg" version="1.1" viewBox="0 0 432 90.1">
  <!-- Generator: Adobe Illustrator 29.1.0, SVG Export Plug-In . SVG Version: 2.1.0 Build 142)  -->
  <defs>
    <style>
      .st0 {
        fill: #058bc2;
      }

      .st1 {
        fill: #161113;
      }
    </style>
  </defs>
  <g>
    <path class="st1" d="M99.3,73.6c0,4.5-3.7,8.2-8.2,8.2s-8.2-3.7-8.2-8.2v-35.3h-16.5v35.3c0,9.1,7.4,16.4,16.5,16.4s6.6-1,9.2-2.8c.7-.5,1.6-.8,2.6-.8,2.2,0,4,1.5,4.5,3.5h16.6v-51.7h-16.5v35.3h0Z"/>
    <path class="st1" d="M144.5,56.3c-3.8-.9-5.8-1.6-5.8-3.8s3.8-3.2,5.8-3.2c5.9,0,6,2.5,6.1,3.9h17.4c-.3-2.8-1-7.7-6.9-11.2-3.7-2.2-10.3-3.8-16.5-3.8s-22.8,1.9-22.8,16.2,8,12.8,24.1,16.9c3.5.8,5.9,1.4,5.9,4.1s-4.2,3.5-6.4,3.5c-3.6,0-5.5-.9-6.5-2.1-.9-1.2-1-2.6-1.1-3.8h-17.7c.3,2.6.8,7.1,4.7,10.8,6.4,6.1,18,6.1,19.7,6.1,6.1,0,13.3-1.3,17.4-3.8,4.7-2.9,7.6-7.4,7.6-13,0-11-9-13-25.1-17h0Z"/>
    <path class="st1" d="M244.2,56.3c-3.8-.9-5.8-1.6-5.8-3.8s3.7-3.2,5.8-3.2c6.1,0,6.2,2.5,6.3,3.9h17.2c-.3-2.8-1-7.7-6.8-11.2-3.7-2.2-10.2-3.8-16.6-3.8s-22.8,1.9-22.8,16.2,8.2,12.8,24.1,16.9c3.6.8,6.1,1.4,6.1,4.1s-4.4,3.5-6.6,3.5c-3.6,0-5.4-.9-6.4-2.1-.9-1.2-1-2.6-1.1-3.8h-17.8c.3,2.6.8,7.1,4.8,10.8,6.4,6.1,17.9,6.1,19.6,6.1,6.3,0,13.4-1.3,17.4-3.8,4.7-2.9,7.6-7.4,7.6-13,0-11-8.9-13-25.1-17h0Z"/>
    <polygon class="st1" points="328.4 38.3 328.4 56.2 344.9 53.5 344.9 38.3 328.4 38.3"/>
    <path class="st1" d="M181.7,38.3l-11.8,51.7h16.5l.5-2.4h0c.2-.9,1-1.7,1.9-1.8h0l10.6-1.7c.1,0,.3,0,.4,0,1.1,0,2.2.8,2.4,1.8l1,4.2h16.3l-11.7-51.7h-26.2,0ZM192.4,78.3h0c-.1,0-.2,0-.4,0-1.3,0-2.3-1.1-2.3-2.3s0-.3,0-.5h0l3.9-17.4h0c.1-.5.6-.9,1.1-.9s1,.4,1.1.9h0s4.2,19,4.2,19l-7.7,1.2h0Z"/>
    <path class="st1" d="M306.6,59.8l-14,2.2c0,0-.2,0-.3,0-1.3,0-2.3-1-2.3-2.3v-21.4h-16.3v51.7h16.3v-16.7h0c0-2.2,1.8-4.2,3.9-4.6h0l10-1.6c.1,0,.2,0,.3,0,1.3,0,2.3,1,2.3,2.3v20.5h16.5v-51.7h-16.5v21.5h0Z"/>
    <polygon class="st1" points="328.4 90.1 344.9 90.1 344.9 60.6 328.4 63.3 328.4 90.1"/>
    <path class="st1" d="M31.7,70.9c-.2.5-.6.8-1.1.8s-.9-.3-1.1-.8h0l-10.7-32.6H0v51.7h16.5v-25.3l8.2,25.3h11.7l8.3-25.3v25.3h16.5v-51.7h-18.8l-10.7,32.6h0Z"/>
  </g>
  <polygon class="st0" points="383.8 0 380.3 0 350.2 59.2 364.7 56.7 381.8 23.2 391 42.7 377 42.7 377 46.8 393 46.8 395.2 46.8 406.1 46.8 383.8 0"/>
  <g>
    <polygon class="st0" points="410.2 13.1 404 0 400.6 0 395.8 9.3 397.6 13.1 410.2 13.1"/>
    <polygon class="st0" points="412.2 17.2 399.5 17.2 418.9 59.2 432 59.2 412.2 17.2"/>
  </g>
</svg>